<svg xmlns="http://www.w3.org/2000/svg" height="91" width="91"><path d="M71.619 16.685c-10.5 0-19.045 8.545-19.045 19.051s8.545 19.051 19.045 19.051c10.508 0 19.055-8.547 19.055-19.051s-8.547-19.051-19.055-19.051zm7.746 21.722h-5.438v5.439c0 1.385-1.123 2.506-2.506 2.506s-2.504-1.121-2.504-2.506v-5.439h-5.439c-1.383 0-2.506-1.121-2.506-2.506s1.123-2.504 2.506-2.504h5.439v-5.436c0-1.383 1.121-2.504 2.504-2.504s2.506 1.121 2.506 2.504v5.436h5.438c1.383 0 2.504 1.121 2.504 2.504s-1.121 2.506-2.504 2.506zM25.506 55.183l-4.42 23.086 5.455 4.363 5.449-4.36-4.486-23.089z" fill="#6ec4a7"/><path d="M43.961 47.731a25.08 25.08 0 0 1-11.889 6.576l4.76 24.412a2.32 2.32 0 0 1-.82 2.289l-2.051 1.639c5.709-.682 11.896-2.17 18.375-4.889V59.64c0-5.371-2.77-9.266-8.375-11.909zm-23.039 6.653A25.06 25.06 0 0 1 8.77 47.749C3.395 50.384.743 54.274.743 59.64v18.205c2.584 1.201 9.234 3.908 18.488 4.896l-2.162-1.73c-.682-.547-1.002-1.428-.826-2.283l4.679-24.344zm5.428-4.043c11.309 0 20.506-9.262 20.506-20.648S37.658 9.044 26.35 9.044c-11.299 0-20.492 9.262-20.492 20.648s9.193 20.649 20.492 20.649z" fill="#647f94"/></svg>